<svg id="Capa_1" enable-background="new 0 0 512.001 512.001" height="512" viewBox="0 0 512.001 512.001" width="512" xmlns="http://www.w3.org/2000/svg"><g><g><path d="m492.589 12.198c-6.029-6.029-15.72-6.288-22.062-.589l-192.817 173.246 50.611 50.611 165.356-185.735c9.637-10.824 9.159-27.285-1.088-37.533z" fill="#f5f0eb"/></g><g><path d="m492.589 12.198c-6.029-6.029-15.72-6.288-22.062-.589l-4.817 4.328c7.097 10.198 6.504 24.206-2.033 33.794l-151.226 169.864 15.871 15.871 165.355-185.735c9.637-10.824 9.159-27.285-1.088-37.533z" fill="#ebe1dc"/></g><g><path d="m302.946 237.328-45.68-45.68-16.355 16.354c-18.883 18.883-44.005 30.231-70.656 31.916-60.037 3.796-113.46 39.411-140.056 93.369l-12.662 25.689c-13.249 26.879-4.653 59.412 20.144 76.238 26.576 18.034 62.638 11.964 81.846-13.777l3.477-4.66c26.087-36.335 56.175-69.622 89.7-99.234z" fill="#f6d879"/></g><g><path d="m58.082 398.794c-5.678-5.679-7.1-14.35-3.539-21.577l12.663-25.689c20.007-40.59 60.49-67.578 105.652-70.434 3.224-.204 6.431-.51 9.617-.917 3.619-.462 5.65 4.03 2.915 6.445-35.691 31.525-67.877 67.111-95.674 105.779l-3.252 4.357c-6.03 8.08-17.279 9.974-25.615 4.317-1.003-.679-1.932-1.446-2.767-2.281z" fill="#fcf5f5"/></g><g><path d="m274.607 448.904c.923-3.781 19.146-129.724 24.41-166.161.918-6.353 3.866-12.236 8.405-16.775l16.628-16.628c17.186-17.187 17.186-45.051 0-62.238-17.187-17.186-45.051-17.186-62.238 0l-12.121 12.121c-7.433 7.433-12.037 17.227-13.017 27.693l-11.269 120.292c-.667 7.124-6.971 12.495-14.088 11.754-22.17-2.309-45.193 5.506-61.568 23.458-25.221 27.649-25.224 70.562-.005 98.213 28.243 30.968 76.272 31.799 105.577 2.494 9.796-9.795 16.224-21.682 19.286-34.223z" fill="#f6de91"/></g><g><path d="m324.05 187.102c-12.471-12.471-30.562-15.884-46.119-10.256 5.882 2.128 11.404 5.541 16.119 10.256 17.186 17.187 17.186 45.051 0 62.238l-16.628 16.628c-4.539 4.539-7.487 10.422-8.405 16.775-5.264 36.436-23.487 162.38-24.41 166.16-3.061 12.541-9.49 24.428-19.285 34.224-10.413 10.413-23.194 17.001-36.608 19.804 23.3 4.875 48.52-1.715 66.608-19.804 9.795-9.795 16.224-21.682 19.285-34.224.923-3.78 19.146-129.724 24.41-166.16.918-6.353 3.866-12.236 8.405-16.775l16.628-16.628c17.186-17.186 17.186-45.051 0-62.238z" fill="#f6d879"/></g><g><path d="m181.3 453.954c-12.365-12.365-12.364-32.483 0-44.847 12.365-12.365 32.483-12.365 44.848-.001 12.365 12.365 12.364 32.483 0 44.848-12.365 12.364-32.483 12.365-44.848 0z" fill="#fcf5f5"/></g><g><path d="m497.892 6.895c-8.847-8.848-23.069-9.228-32.378-.865l-55.338 49.721c-3.081 2.768-3.335 7.51-.566 10.592 2.768 3.081 7.511 3.335 10.592.566l55.338-49.721c3.376-3.033 8.536-2.896 11.746.314 7.429 7.429 7.776 19.395.795 27.237l-144.968 162.51c-1.468-7.008-4.414-13.75-8.857-19.745l44.723-44.723c2.929-2.929 2.929-7.677 0-10.606-2.93-2.928-7.678-2.929-10.608 0l-44.714 44.714c-5.125-3.814-10.801-6.547-16.72-8.21l91.211-81.954c3.081-2.768 3.335-7.51.566-10.592-2.769-3.081-7.51-3.335-10.592-.566 0 0-101.228 91.071-101.566 91.574-10.991 1.36-21.626 6.238-30.046 14.658l-20.901 20.9c-17.604 17.604-40.981 28.164-65.827 29.734-62.541 3.954-118.604 41.329-146.31 97.538l-12.662 25.69c-14.821 30.069-5.079 66.938 22.66 85.76 11.637 7.897 24.85 11.7 37.932 11.7 19.584 0 38.857-8.543 52.096-24.627-.757 20.487 6.137 41.22 20.705 57.194 14.997 16.444 35.475 25.781 57.661 26.291.641.015 1.278.022 1.917.022 21.48-.001 41.603-8.328 56.846-23.57 10.431-10.432 17.785-23.484 21.268-37.75.239-.981.737-3.022 12.789-85.773.597-4.099-2.242-7.906-6.341-8.503-4.099-.594-7.905 2.241-8.503 6.341-10.106 69.396-12.202 82.768-12.539 84.462-2.838 11.561-8.811 22.147-17.281 30.616-12.77 12.77-29.738 19.563-47.811 19.159-18.049-.415-34.713-8.016-46.922-21.403-22.529-24.704-22.527-63.404.004-88.105 14.192-15.559 34.328-23.232 55.251-21.053 5.378.562 10.662-1.034 14.876-4.489 4.29-3.517 6.938-8.499 7.456-14.025l11.268-120.292c.816-8.707 4.67-16.906 10.853-23.089l12.121-12.12c14.234-14.235 37.396-14.233 51.63 0 14.235 14.235 14.235 37.396.001 51.631l-16.629 16.628c-5.645 5.646-9.383 13.106-10.524 21.007-1.194 8.267-4.602 31.795-6.358 43.918-.594 4.1 2.248 7.904 6.348 8.498 4.099.594 7.904-2.248 8.498-6.347 1.756-12.124 5.164-35.656 6.358-43.924.682-4.718 2.914-9.173 6.286-12.545l16.016-16.015c7.132-7.132 11.818-15.87 14.019-25.08l156.518-175.46c12.265-13.775 11.655-34.782-1.387-47.823zm-380.939 405.453-3.437 4.606c-16.85 22.58-48.311 27.877-71.624 12.056-21.579-14.643-29.158-43.325-17.628-66.716l12.663-25.69c25.337-51.404 76.607-85.584 133.802-89.2 21.035-1.33 41.15-8.282 58.363-19.952l-6.73 71.838c-.587.291-1.149.656-1.663 1.112l-12.961 11.521c-33.877 29.924-64.42 63.709-90.785 100.425zm98.953-62.015c-1.093.896-2.445 1.309-3.811 1.169-8.75-.912-17.388-.417-25.666 1.381 10.055-10.287 20.479-20.213 31.257-29.734l2.662-2.366-2.41 25.724c-.14 1.509-.862 2.867-2.032 3.826z"/><path d="m193.146 279.226c-2.041-4.507-6.714-7.114-11.621-6.487-3.027.386-6.102.68-9.14.872-47.835 3.025-90.715 31.611-111.906 74.603l-12.664 25.689c-4.982 10.108-2.988 22.243 4.962 30.195 0 0 .001.001.001.001 1.169 1.169 2.468 2.241 3.859 3.185 4.528 3.073 9.668 4.552 14.759 4.552 8.022 0 15.919-3.677 21.078-10.59l3.252-4.357c.026-.036 59.359-73.492 94.628-104.643 3.712-3.28 4.834-8.512 2.792-13.02zm-112.693 113.047c-3.623 4.856-10.384 5.995-15.394 2.597-.61-.414-1.173-.878-1.674-1.378-3.406-3.407-4.256-8.615-2.115-12.958l12.663-25.689c18.609-37.753 56.048-63 97.953-66.164-32.697 29.938-91.433 103.592-91.433 103.592z"/><path d="m175.997 403.803c-15.289 15.289-15.289 40.165 0 55.454 7.645 7.644 17.686 11.466 27.727 11.466s20.083-3.822 27.727-11.466c15.289-15.289 15.289-40.166.001-55.455-15.289-15.288-40.166-15.288-55.455.001zm44.847 44.848c-9.44 9.439-24.801 9.439-34.241 0-9.44-9.44-9.44-24.801 0-34.241 9.44-9.441 24.801-9.441 34.242 0 9.44 9.44 9.44 24.8-.001 34.241z"/><path d="m298.202 223.557c2.93-2.929 2.93-7.678.001-10.607-2.93-2.928-7.679-2.929-10.607-.001l-9.028 9.027c-2.93 2.929-2.93 7.678-.001 10.607 1.465 1.464 3.384 2.197 5.304 2.197 1.919 0 3.839-.732 5.303-2.196z"/></g></g></svg>